<svg width="48" height="48" viewBox="0 0 48 48" fill="none" xmlns="http://www.w3.org/2000/svg">
<path d="M15.2 26.4C16.4151 26.4 17.4 25.4151 17.4 24.2C17.4 22.985 16.4151 22 15.2 22C13.985 22 13 22.985 13 24.2C13 25.4151 13.985 26.4 15.2 26.4Z" fill="#343436"/>
<path d="M24.0001 26.4C25.2151 26.4 26.2001 25.4151 26.2001 24.2C26.2001 22.985 25.2151 22 24.0001 22C22.785 22 21.8 22.985 21.8 24.2C21.8 25.4151 22.785 26.4 24.0001 26.4Z" fill="#343436"/>
<path d="M32.7999 26.4C34.0149 26.4 34.9999 25.4151 34.9999 24.2C34.9999 22.985 34.0149 22 32.7999 22C31.5848 22 30.5999 22.985 30.5999 24.2C30.5999 25.4151 31.5848 26.4 32.7999 26.4Z" fill="#343436"/>
</svg>
