<svg xmlns="http://www.w3.org/2000/svg" width="200" height="40" viewBox="0,0,200,40"><path fill="#444" d="M173.51 23.77L173.38 23.65L167.55 23.79L167.53 23.77Q164.62 23.84 161.69 23.76L161.73 23.79L161.60 23.66Q161.85 30.50 159.79 36.02L159.80 36.03L159.78 36.01Q157.84 36.39 156.08 37.07L156.11 37.09L156.21 37.20Q158.86 31.36 158.86 24.70L158.99 24.83L158.88 24.72Q158.98 16.33 154.87 9.29L154.81 9.22L154.90 9.31Q156.29 9.99 158.77 10.78L158.86 10.88L158.87 10.89Q160.90 15.85 161.43 20.72L161.55 20.84L161.46 20.75Q164.65 21.16 167.50 21.12L167.59 21.21L167.48 21.09Q170.27 21.22 173.58 20.95L173.56 20.93L173.44 20.82Q173.99 16.49 175.74 11.39L175.68 11.32L175.73 11.37Q177.69 10.98 179.94 10.15L179.90 10.11L179.88 10.09Q176.19 16.75 176.19 24.71L176.36 24.87L176.22 24.74Q176.21 30.93 178.57 36.26L178.65 36.34L178.68 36.37Q177.14 35.82 175.09 35.52L175.06 35.49L175.02 35.46Q173.35 30.43 173.46 23.73ZM174.77 35.81L174.68 35.72L174.77 35.81Q175.66 35.82 176.76 36.09L176.90 36.22L176.93 36.25Q177.23 36.94 177.88 38.43L177.81 38.36L177.89 38.43Q181.13 39.28 182.92 40.19L182.89 40.16L182.97 40.24Q178.59 34.15 178.29 25.89L178.16 25.77L178.14 25.74Q177.99 17.86 181.64 11.05L181.62 11.03L180.59 11.52L180.54 11.47Q180.08 11.73 179.47 11.88L179.32 11.73L179.45 11.86Q179.72 10.92 180.56 9.36L180.73 9.53L180.68 9.47Q178.02 10.51 175.39 11.00L175.42 11.03L175.34 10.95Q173.72 15.84 173.27 20.52L173.33 20.58L173.14 20.40Q170.85 20.81 168.41 20.81L168.37 20.76L168.31 20.71Q165.95 20.75 163.44 20.60L163.32 20.48L163.45 20.61Q163.27 17.38 162.16 13.30L162.14 13.28L162.17 13.31Q161.48 13.19 160.03 12.81L159.98 12.76L159.96 12.74Q159.67 11.61 159.21 10.58L159.14 10.51L159.09 10.46Q156.44 9.79 154.16 8.53L154.05 8.43L154.05 8.43Q158.61 15.85 158.61 24.64L158.59 24.61L158.67 24.69Q158.69 31.69 155.57 37.82L155.48 37.73L155.56 37.80Q156.28 37.53 157.61 36.96L157.57 36.92L157.60 36.95Q157.22 37.75 156.42 39.27L156.54 39.39L156.53 39.38Q159.31 38.35 161.55 37.94L161.42 37.80L161.57 37.95Q163.47 32.43 163.66 26.26L163.57 26.17L163.61 26.21Q165.18 26.11 168.38 26.07L168.45 26.14L168.43 26.12Q171.23 26.03 173.13 26.10L173.15 26.12L173.08 26.05Q173.47 31.92 174.80 35.84Z"/><path fill="#333" d="M25.66 14.75L25.61 14.69L25.61 14.70Q23.52 14.70 22.57 14.86L22.69 14.97L22.65 14.93Q21.06 15.21 19.84 15.74L19.85 15.76L19.81 15.71Q16.34 17.19 16.22 21.87L16.24 21.89L16.23 21.87Q16.15 24.54 16.79 27.47L16.75 27.42L16.82 27.49Q17.72 31.55 21.33 32.73L21.25 32.65L21.24 32.63Q23.21 33.27 24.65 33.12L24.63 33.09L24.97 32.98L25.07 33.08Q25.23 33.05 25.42 33.09L25.47 33.14L25.32 32.99Q25.56 33.07 25.71 33.04L25.68 33.00L25.79 33.12Q28.26 32.69 29.63 32.11L29.73 32.22L26.11 28.64L26.18 28.71Q26.38 28.26 26.99 27.65L26.99 27.65L27.88 26.72L28.02 26.85Q29.78 28.84 31.76 30.89L31.88 31.02L31.80 30.94Q34.04 29.03 34.31 23.66L34.39 23.74L34.36 23.71Q34.45 22.81 34.45 21.90L34.53 21.98L34.38 21.83Q34.49 16.27 29.42 15.16L29.46 15.19L29.46 15.20Q28.04 14.77 25.53 14.62ZM38.28 36.66L38.35 36.73L38.31 36.69Q37.70 37.10 36.52 37.98L36.53 37.99L32.13 34.31L32.20 34.38Q29.69 35.57 25.43 35.61L25.50 35.68L25.41 35.59Q18.80 35.64 15.98 33.39L16.02 33.43L16.12 33.53Q14.26 31.68 13.81 28.71L13.81 28.71L13.88 28.77Q13.70 27.00 13.32 23.42L13.16 23.26L13.29 23.39Q13.24 22.62 13.13 20.87L13.17 20.91L13.15 20.89Q13.08 19.41 13.12 18.54L12.99 18.41L12.95 18.37Q13.16 15.42 14.91 13.86L14.94 13.88L14.97 13.91Q16.51 12.60 19.71 12.10L19.67 12.07L19.59 11.99Q22.04 11.59 24.93 11.66L24.98 11.71L24.87 11.60Q32.37 11.72 35.50 14.08L35.58 14.16L35.53 14.11Q37.76 16.30 37.50 21.22L37.51 21.23L37.43 21.15Q37.32 24.89 37.13 26.22L37.20 26.29L37.12 26.21Q36.49 30.72 34.17 33.04L34.23 33.10L34.06 32.94Q35.57 34.21 38.31 36.68ZM33.54 12.50L33.50 12.46L33.44 12.40Q31.49 11.75 24.98 11.25L24.90 11.17L25.01 11.28Q23.57 11.25 20.79 11.36L20.90 11.47L20.76 11.33Q16.67 11.69 14.42 13.67L14.30 13.55L14.37 13.62Q12.64 15.02 12.64 18.18L12.73 18.26L12.72 18.25Q12.75 19.12 12.90 20.83L12.90 20.83L12.91 20.84Q13.02 22.52 13.02 23.39L13.02 23.39L12.90 23.27Q13.12 25.09 13.50 28.67L13.61 28.78L13.51 28.68Q13.91 31.59 15.51 33.65L15.40 33.54L15.44 33.58Q15.87 34.50 17.09 35.64L17.08 35.63L16.96 35.51Q19.71 37.54 24.89 37.81L24.88 37.80L25.03 37.95Q25.26 37.83 27.65 37.95L27.62 37.91L27.59 37.88Q32.48 38.13 34.77 37.06L34.76 37.06L34.75 37.04Q35.55 37.66 40.27 41.24L40.27 41.24L40.32 41.28Q41.00 40.83 42.30 39.84L42.18 39.72L42.23 39.76Q41.34 39.07 40.54 38.39L40.55 38.39L38.99 37.02L38.93 36.81L39.10 36.99Q38.40 36.39 37.18 35.37L37.24 35.43L37.14 35.33Q39.05 32.82 39.05 28.29L39.04 28.28L39.21 28.45Q39.04 27.86 39.08 27.02L39.21 27.16L39.18 27.12Q39.20 26.27 39.20 25.86L39.23 25.89L39.27 25.92Q39.23 20.36 38.51 18.00L38.41 17.91L38.55 18.05Q38.17 16.75 37.29 15.68L37.16 15.55L37.27 15.66Q36.36 13.41 33.42 12.38ZM27.42 16.97L27.51 17.06L27.51 17.06Q31.54 16.93 33.36 18.53L33.43 18.60L33.30 18.46Q33.89 19.70 34.00 21.03L34.03 21.07L34.09 21.12Q34.22 22.43 34.14 23.80L34.02 23.68L34.03 23.69Q33.81 28.76 31.87 30.48L31.76 30.36L31.84 30.45Q30.52 29.13 28.01 26.39L27.90 26.28L28.03 26.41Q27.24 27.14 25.68 28.70L25.61 28.63L25.59 28.61Q26.22 29.28 27.36 30.46L27.33 30.43L27.35 30.56L27.24 30.45Q27.80 30.97 28.83 32.04L28.95 32.16L28.94 32.15Q27.80 32.27 25.48 32.57L25.63 32.73L24.94 32.57L24.70 32.75L24.60 32.68L24.66 32.74Q21.13 32.68 19.15 31.04L19.19 31.08L19.09 30.98Q18.19 29.01 18.22 25.89L18.09 25.75L18.21 25.88Q18.22 17.01 27.39 16.94Z"/><path d="M10 2 C92 12,115 4,197 1" stroke="#777" fill="none"/><path fill="#222" d="M110.19 24.14L110.25 24.21L110.33 24.28Q108.44 24.26 107.22 25.59L107.18 25.55L107.07 25.44Q105.94 26.87 105.79 28.77L105.86 28.84L105.84 28.82Q105.67 30.97 106.89 31.98L106.83 31.92L106.86 31.95Q108.04 32.93 110.18 32.85L110.23 32.90L110.22 32.90Q112.52 32.72 113.47 31.76L113.53 31.83L113.43 31.73Q114.38 30.20 114.26 28.37L114.30 28.41L114.43 28.54Q114.25 26.61 113.17 25.41L113.16 25.40L113.10 25.34Q111.96 24.09 110.13 24.09ZM110.24 14.79L110.20 14.76L110.13 14.68Q108.75 14.60 107.42 15.09L107.42 15.09L107.53 15.20Q106.13 15.90 106.36 17.76L106.43 17.84L106.44 17.85Q106.86 21.50 110.21 21.50L110.14 21.43L110.14 21.43Q111.88 21.80 112.87 20.65L112.83 20.62L112.85 20.64Q113.68 19.34 113.72 17.78L113.78 17.84L113.78 17.84Q113.85 16.09 113.13 15.48L113.17 15.51L113.18 15.53Q111.47 14.65 110.17 14.73ZM109.90 35.28L109.96 35.34L106.80 35.22L106.94 35.36Q105.39 35.34 104.06 34.47L103.93 34.33L104.01 34.41Q102.67 33.31 102.83 30.45L102.84 30.46L102.76 30.38Q103.23 23.55 106.85 22.56L106.97 22.68L106.85 22.56Q104.50 21.58 103.17 16.21L103.23 16.27L103.29 16.34Q102.92 14.90 103.00 14.10L102.94 14.04L103.06 14.16Q103.39 12.06 107.08 12.02L107.04 11.97L106.96 11.90Q111.21 11.84 112.65 12.03L112.60 11.98L112.76 12.14Q116.44 12.50 116.90 14.52L116.94 14.57L116.90 14.52Q117.07 15.19 117.07 15.57L117.00 15.50L117.08 15.58Q117.18 16.37 116.99 16.97L116.91 16.90L116.88 16.86Q116.22 21.04 113.29 22.57L113.30 22.57L113.27 22.54Q116.93 23.50 117.42 28.79L117.31 28.68L117.31 28.67Q117.43 28.95 117.47 30.24L117.30 30.08L117.39 30.16Q117.48 32.93 115.89 33.99L115.84 33.94L115.89 34.00Q114.55 34.90 109.98 35.36ZM112.11 37.53L112.20 37.62L115.52 37.66L115.53 37.67Q117.28 37.79 118.81 37.07L118.80 37.06L118.80 37.06Q120.03 36.42 120.10 34.56L119.94 34.39L120.02 34.48Q120.09 33.40 119.71 31.46L119.62 31.37L119.68 31.43Q118.76 26.78 116.67 24.91L116.61 24.86L116.48 24.54L116.31 24.29L116.09 23.95L116.15 24.02Q117.71 22.57 118.63 18.42L118.77 18.56L118.77 18.57Q118.67 18.08 118.75 17.25L118.82 17.33L118.74 17.24Q118.81 16.55 118.73 15.94L118.82 16.03L118.77 15.98Q118.52 14.43 117.34 13.94L117.50 14.10L117.47 14.03L117.21 13.85L117.35 13.98Q117.01 13.18 115.83 12.39L115.74 12.30L115.88 12.40L115.86 12.38Q113.94 11.76 109.87 11.57L109.90 11.60L109.72 11.41Q108.22 11.36 106.84 11.47L106.90 11.53L106.95 11.58Q106.15 11.62 104.86 11.77L104.70 11.61L104.74 11.66Q102.94 12.18 102.71 13.81L102.53 13.63L102.64 13.74Q102.65 14.28 102.68 15.08L102.72 15.11L102.57 14.97Q102.64 15.45 103.21 17.81L103.23 17.83L103.21 17.82Q104.13 21.17 105.88 22.51L105.82 22.44L105.84 22.47L105.90 22.53Q103.07 23.77 102.54 28.95L102.62 29.02L102.62 29.03Q102.49 31.30 102.49 32.21L102.33 32.05L102.39 32.10Q102.42 33.85 103.60 34.76L103.74 34.91L103.68 34.85Q103.88 35.01 104.15 35.20L104.01 35.06L104.03 35.08Q105.01 37.32 112.13 37.55ZM111.84 26.52L111.80 26.48L111.93 26.61Q112.82 26.51 113.69 26.96L113.71 26.98L113.75 27.02Q114.04 27.92 114.00 28.46L113.98 28.44L113.92 28.37Q114.08 28.80 114.08 29.11L113.98 29.01L114.11 29.13Q114.05 31.44 111.77 32.27L111.84 32.34L111.79 32.29Q110.94 32.55 110.14 32.43L110.11 32.40L110.18 32.48Q108.96 32.48 107.82 32.02L107.86 32.06L107.81 32.01Q107.56 31.38 107.63 30.39L107.71 30.47L107.71 30.46Q107.94 28.94 109.14 27.72L109.10 27.69L108.97 27.56Q110.24 26.40 111.84 26.52ZM112.06 17.03L112.11 17.08L112.08 17.05Q112.87 16.92 113.40 17.08L113.36 17.04L113.34 17.81L113.49 17.97Q113.51 19.40 112.60 20.41L112.60 20.41L112.48 20.29Q111.67 21.40 110.30 21.21L110.22 21.13L110.19 21.10Q109.15 21.05 108.73 20.82L108.84 20.93L108.86 20.95Q108.86 20.72 108.74 20.03L108.70 19.99L108.68 19.98Q108.30 18.45 109.52 17.62L109.65 17.74L109.70 17.79Q110.70 17.04 112.11 17.08Z"/><path fill="#444" d="M79.83 21.79L79.84 21.80L79.90 21.85Q81.76 22.08 83.58 22.08L83.53 22.03L83.44 21.93Q85.20 21.90 87.02 21.75L87.17 21.89L87.06 21.78Q86.95 22.44 86.95 23.16L86.98 23.19L86.91 24.46L87.01 24.55Q84.66 24.56 79.90 24.67L79.81 24.59L79.94 24.71Q79.94 30.65 78.80 35.64L78.64 35.48L78.64 35.48Q76.56 36.30 75.08 37.10L75.12 37.14L75.09 37.11Q77.38 30.27 77.12 23.15L77.08 23.12L77.16 23.19Q76.91 16.05 74.25 9.39L74.08 9.23L74.18 9.32Q77.83 11.83 82.59 12.06L82.52 11.99L82.59 12.06Q87.33 12.31 91.48 10.56L91.34 10.42L91.47 10.55Q91.17 11.35 90.94 12.15L90.97 12.18L90.37 13.68L90.33 13.63Q87.72 14.83 84.75 14.99L84.66 14.89L84.77 15.00Q81.83 15.15 78.98 14.42L78.87 14.31L79.03 14.48Q79.66 17.81 79.85 21.81ZM92.06 9.81L92.10 9.84L92.08 9.82Q87.49 11.98 82.62 11.67L82.53 11.58L82.58 11.63Q77.24 11.31 73.51 8.46L73.43 8.38L73.50 8.45Q76.48 15.50 76.78 23.12L76.66 23.00L76.75 23.08Q77.03 30.98 74.52 37.76L74.63 37.87L74.58 37.81Q75.25 37.42 76.62 36.78L76.51 36.66L76.57 36.72Q76.32 37.43 75.75 38.95L75.75 38.95L75.81 39.01Q78.14 37.95 81.03 37.46L81.09 37.52L81.06 37.48Q81.55 32.49 81.74 26.78L81.83 26.87L81.88 26.92Q83.52 26.73 85.35 26.73L85.52 26.91L85.46 26.85Q87.22 26.82 89.05 27.01L89.11 27.07L88.99 26.95Q88.98 26.10 88.98 25.19L88.84 25.05L88.92 23.23L88.86 23.16Q88.26 23.44 87.42 23.44L87.41 23.43L87.40 23.41Q87.33 22.47 87.40 21.44L87.49 21.53L87.47 21.51Q86.02 21.62 84.62 21.62L84.59 21.60L84.68 21.69Q83.19 21.61 81.82 21.57L81.84 21.59L81.70 19.31L81.74 19.36Q81.71 18.26 81.59 17.19L81.63 17.23L81.57 17.17Q82.59 17.28 83.58 17.28L83.65 17.34L83.56 17.26Q88.33 17.27 91.94 15.36L92.07 15.48L91.91 15.33Q92.44 13.53 93.35 10.90L93.34 10.90L93.30 10.86Q91.99 11.68 91.19 12.02L91.37 12.20L91.28 12.11Q91.62 11.42 92.11 9.86Z"/><path fill="#333" d="M140.04 35.02L140.07 35.05L138.02 35.29L138.11 35.38Q137.59 35.31 136.62 35.37L136.69 35.44L136.66 35.41Q135.60 35.38 135.11 35.38L135.06 35.33L135.21 35.49Q133.47 35.38 132.45 34.54L132.57 34.67L132.55 34.65Q133.36 33.55 134.99 31.42L134.85 31.27L134.98 31.40Q136.20 32.93 138.41 32.70L138.29 32.58L138.47 32.76Q139.20 32.47 139.85 31.82L139.97 31.94L140.00 31.97Q140.51 31.18 140.39 30.31L140.56 30.48L140.43 30.35Q140.42 25.85 140.50 21.28L140.34 21.12L140.47 21.24Q140.50 16.64 141.04 12.03L140.94 11.94L140.97 11.97Q143.00 11.86 145.13 10.83L145.08 10.78L145.04 10.75Q143.12 17.43 143.12 24.66L143.17 24.71L143.24 24.78Q143.31 28.39 143.77 31.90L143.61 31.74L143.70 31.83Q143.71 32.10 143.71 32.45L143.80 32.53L143.84 32.58Q143.69 32.99 143.46 33.53L143.48 33.55L143.51 33.58Q143.05 34.94 140.23 35.21ZM145.02 37.90L144.99 37.87L145.34 37.89L145.69 37.82L145.95 37.69L145.90 37.65Q146.33 37.50 146.40 37.39L146.28 37.26L146.43 37.41Q146.43 36.04 146.17 35.05L146.28 35.17L146.25 35.14Q144.91 29.35 145.18 22.99L145.14 22.95L145.18 22.99Q145.36 16.81 147.15 10.91L147.26 11.03L147.14 10.90Q146.27 11.56 145.02 12.28L145.00 12.26L145.09 12.35Q145.32 11.64 145.74 10.11L145.63 10.00L145.60 9.97Q143.21 11.43 140.55 11.74L140.59 11.78L140.60 11.78Q140.24 16.19 140.17 21.14L140.13 21.10L140.02 20.99Q140.06 27.01 140.14 30.44L140.14 30.44L140.18 30.48Q140.13 32.14 138.38 32.29L138.34 32.25L138.35 32.26Q136.62 32.36 134.94 30.72L134.91 30.69L135.01 30.79Q132.88 33.23 131.93 34.79L131.98 34.84L132.05 34.91Q132.66 35.52 133.69 35.75L133.73 35.79L133.71 35.77Q133.55 35.84 133.29 36.07L133.36 36.14L133.26 36.04Q134.69 36.98 136.67 37.25L136.71 37.28L136.76 37.34Q137.12 37.35 140.41 37.65L140.42 37.66L140.47 37.71Q143.69 37.95 145.06 37.95Z"/><path fill="#111" d="M56.88 34.90L56.82 34.85L54.88 34.85L54.90 34.87Q53.97 34.89 53.02 35.00L53.07 35.06L52.89 34.88Q53.59 28.80 53.59 24.80L53.62 24.84L53.57 24.78Q49.49 18.00 41.84 9.32L41.98 9.46L41.95 9.43Q43.70 10.39 47.05 11.19L46.99 11.12L47.09 11.22Q52.20 16.87 55.21 22.08L55.11 21.99L55.21 22.08Q58.14 16.45 62.52 11.43L62.48 11.39L62.54 11.44Q65.01 11.10 67.53 10.30L67.49 10.27L67.35 10.12Q61.42 16.34 56.55 24.75L56.57 24.77L56.46 24.67Q56.59 31.84 56.90 34.92ZM65.90 12.26L68.66 9.46L68.71 9.51Q65.49 10.55 62.37 11.00L62.38 11.02L62.44 11.08Q58.15 15.73 55.33 20.84L55.44 20.95L55.35 20.85Q53.32 17.30 50.12 13.41L49.98 13.27L50.10 13.40Q49.83 13.40 49.34 13.32L49.34 13.32L49.18 13.17Q48.61 12.47 47.08 10.80L47.00 10.71L47.01 10.72Q43.74 10.08 40.77 8.52L40.73 8.48L40.62 8.37Q48.41 16.92 53.17 24.84L53.22 24.89L53.23 24.90Q53.01 31.11 52.40 35.26L52.49 35.35L52.56 35.43Q53.27 35.37 54.71 35.25L54.73 35.27L54.77 36.34L54.76 36.33Q54.65 36.68 54.58 37.21L54.70 37.33L54.52 37.16Q58.07 37.16 59.82 37.35L59.84 37.37L59.89 37.42Q58.62 32.72 58.50 26.75L58.61 26.86L58.50 26.74Q62.85 18.27 69.40 10.92L69.44 10.96L65.90 12.25Z"/><path d="M12 14 C92 30,117 13,190 24" stroke="#888" fill="none"/></svg>