<svg width="37" height="37" viewBox="0 0 37 37" fill="none" xmlns="http://www.w3.org/2000/svg">
<path d="M24.1513 36.5H13.1293C6.16406 36.5 0.5 30.8158 0.5 23.9189V13.0053C0.5 6.10842 6.16406 0.5 13.1293 0.5H24.1513C31.1165 0.5 36.7806 6.10842 36.7806 13.0053V23.9189C36.8571 30.8158 31.1931 36.5 24.1513 36.5Z" fill="#0055E6"/>
<path d="M10.0938 10.3531V26.6478C10.0938 27.7089 11.2543 28.1636 11.9506 27.4815L15.7416 23.6162C15.9737 23.3889 16.0511 23.0857 16.0511 22.7825V18.4625C16.0511 17.932 16.5153 17.4773 17.0569 17.4773H19.0685C19.9969 17.4773 20.3837 16.2647 19.6874 15.7341L12.028 9.4436C11.1769 8.83728 10.0938 9.36781 10.0938 10.3531Z" fill="white"/>
<path d="M27.8885 26.5712V10.3523C27.8885 9.29122 26.7279 8.83648 26.0316 9.51858L22.2406 13.3838C22.0085 13.6112 21.9311 13.9144 21.9311 14.2175V18.5375C21.9311 19.0681 21.4669 19.5228 20.9253 19.5228H18.9137C17.9853 19.5228 17.5985 20.7354 18.2948 21.266L25.9543 27.5565C26.8053 28.1628 27.8885 27.5565 27.8885 26.5712Z" fill="white"/>
</svg>
