<svg width="32" height="33" viewBox="0 0 32 33" fill="none" xmlns="http://www.w3.org/2000/svg">
<path d="M20.5997 0H11.3823C5.09601 0 0 5.10414 0 11.4004V20.6326C0 26.9288 5.09601 32.033 11.3823 32.033H20.5997C26.886 32.033 31.982 26.9288 31.982 20.6326V11.4004C31.982 5.10414 26.886 0 20.5997 0Z" fill="#DE400F"/>
<path d="M8.23767 9.24164V22.8127C8.2424 23.0004 8.30101 23.1827 8.40648 23.3378C8.51196 23.493 8.65984 23.6144 8.83241 23.6875C9.00499 23.7607 9.19496 23.7825 9.37959 23.7503C9.56422 23.7182 9.73568 23.6334 9.87346 23.5062L13.1597 20.3075C13.2491 20.2191 13.3201 20.1138 13.3687 19.9977C13.4172 19.8816 13.4423 19.757 13.4425 19.6312V16.015C13.4425 15.7903 13.5316 15.5748 13.6902 15.4159C13.8489 15.257 14.064 15.1677 14.2884 15.1677H16.0119C16.1842 15.1683 16.3523 15.1149 16.4928 15.0151C16.6333 14.9153 16.7391 14.774 16.7955 14.611C16.8519 14.448 16.8561 14.2714 16.8074 14.1059C16.7587 13.9404 16.6595 13.7943 16.5239 13.688L9.83446 8.46028C9.68828 8.34659 9.51319 8.27624 9.3291 8.2572C9.145 8.23816 8.95925 8.2712 8.79296 8.35257C8.62667 8.43394 8.48649 8.56038 8.38833 8.71754C8.29018 8.87469 8.23798 9.05626 8.23767 9.24164Z" fill="white"/>
<path d="M23.7445 22.7888V9.21768C23.7398 9.03004 23.6812 8.84774 23.5757 8.6926C23.4702 8.53745 23.3224 8.41603 23.1498 8.34287C22.9772 8.26971 22.7872 8.24791 22.6026 8.28007C22.418 8.31223 22.2465 8.397 22.1087 8.52423L18.8225 11.7229C18.7331 11.8113 18.6621 11.9166 18.6135 12.0327C18.565 12.1488 18.5399 12.2734 18.5398 12.3992V16.0154C18.5398 16.1269 18.5178 16.2373 18.4751 16.3402C18.4325 16.4432 18.3699 16.5367 18.2911 16.6154C18.2123 16.6941 18.1188 16.7565 18.0159 16.7989C17.9129 16.8414 17.8027 16.863 17.6914 16.8627H15.9703C15.798 16.8621 15.6299 16.9155 15.4894 17.0153C15.3489 17.1151 15.2431 17.2564 15.1867 17.4194C15.1303 17.5824 15.1261 17.759 15.1748 17.9245C15.2235 18.09 15.3227 18.2361 15.4583 18.3424L22.1477 23.5701C22.2939 23.6838 22.469 23.7542 22.6531 23.7732C22.8372 23.7923 23.0229 23.7592 23.1892 23.6778C23.3555 23.5965 23.4957 23.47 23.5939 23.3129C23.692 23.1557 23.7442 22.9742 23.7445 22.7888V22.7888Z" fill="white"/>
</svg>
