<svg width="100" height="32" viewBox="0 0 100 32" fill="none" xmlns="http://www.w3.org/2000/svg">
<rect x="0.991907" y="1.2048" width="98.3351" height="30.4202" rx="4.5984" fill="black"/>
<rect x="0.991907" y="1.2048" width="98.3351" height="30.4202" rx="4.5984" stroke="#A6A6A6" stroke-width="0.707447"/>
<path d="M58.3135 15.7931V17.5759H57.2976V18.7451H58.3135V22.7178C58.3135 24.0743 58.8714 24.6169 60.2749 24.6169C60.5215 24.6169 60.7564 24.5846 60.9619 24.5458V23.3896C60.7858 23.4089 60.6742 23.4219 60.4804 23.4219C59.8521 23.4219 59.5761 23.0989 59.5761 22.3625V18.7451H60.9619V17.5759H59.5761V15.7931H58.3135Z" fill="white"/>
<path d="M64.5373 24.7138C66.4047 24.7138 67.5498 23.3379 67.5498 21.0576C67.5498 18.7903 66.3988 17.408 64.5373 17.408C62.6699 17.408 61.5189 18.7903 61.5189 21.0576C61.5189 23.3379 62.664 24.7138 64.5373 24.7138ZM64.5373 23.48C63.4391 23.48 62.8225 22.595 62.8225 21.0576C62.8225 19.5332 63.4391 18.6418 64.5373 18.6418C65.6295 18.6418 66.252 19.5332 66.252 21.0576C66.252 22.5886 65.6295 23.48 64.5373 23.48Z" fill="white"/>
<path d="M68.5295 24.5781H69.7921V20.4246C69.7921 19.4363 70.4674 18.7709 71.4246 18.7709C71.6477 18.7709 72.0236 18.8162 72.1293 18.8549V17.4855C71.9942 17.4467 71.7535 17.4274 71.5655 17.4274C70.7317 17.4274 70.0211 17.9312 69.8391 18.6224H69.7451V17.5436H68.5295V24.5781Z" fill="white"/>
<path d="M75.2642 18.5901C76.1979 18.5901 76.8086 19.3071 76.838 20.4117H73.6082C73.6786 19.3136 74.3305 18.5901 75.2642 18.5901ZM76.8321 22.679C76.5972 23.2281 76.0746 23.5317 75.3112 23.5317C74.3011 23.5317 73.6493 22.7501 73.6082 21.5163V21.4388H78.124V20.9543C78.124 18.7451 77.0494 17.408 75.2701 17.408C73.4672 17.408 72.3221 18.8355 72.3221 21.0835C72.3221 23.3314 73.4438 24.7138 75.2759 24.7138C76.7381 24.7138 77.7599 23.9386 78.0477 22.679H76.8321Z" fill="white"/>
<path d="M50.0338 21.9804C50.1312 23.7078 51.4398 24.8125 53.3875 24.8125C55.4691 24.8125 56.7716 23.6542 56.7716 21.8063C56.7716 20.3535 56.0291 19.55 54.2275 19.0881L53.2597 18.827C52.1154 18.5324 51.6529 18.1374 51.6529 17.4478C51.6529 16.5774 52.3711 16.0083 53.4484 16.0083C54.4709 16.0083 55.177 16.564 55.3048 17.4545H56.6316C56.5525 15.8275 55.25 14.6826 53.4666 14.6826C51.5494 14.6826 50.2712 15.8275 50.2712 17.5482C50.2712 18.9676 50.9955 19.8112 52.5841 20.2196L53.7162 20.5208C54.8787 20.8221 55.39 21.264 55.39 22.0005C55.39 22.8575 54.5866 23.4801 53.491 23.4801C52.3163 23.4801 51.5007 22.8976 51.385 21.9804H50.0338Z" fill="white"/>
<path d="M36.955 17.4274C36.0859 17.4274 35.3343 17.9054 34.9467 18.7064H34.8527V17.5436H33.6371V26.9165H34.8997V23.5123H34.9995C35.3343 24.2551 36.0566 24.6944 36.9668 24.6944C38.5817 24.6944 39.6093 23.2927 39.6093 21.0576C39.6093 18.8226 38.5817 17.4274 36.955 17.4274ZM36.5968 23.4477C35.5398 23.4477 34.8762 22.5304 34.8762 21.0641C34.8762 19.5913 35.5398 18.6741 36.6027 18.6741C37.6715 18.6741 38.3115 19.5719 38.3115 21.0576C38.3115 22.5498 37.6715 23.4477 36.5968 23.4477Z" fill="white"/>
<path d="M44.0272 17.4274C43.1581 17.4274 42.4065 17.9054 42.0189 18.7064H41.9249V17.5436H40.7093V26.9165H41.9719V23.5123H42.0717C42.4065 24.2551 43.1288 24.6944 44.039 24.6944C45.6539 24.6944 46.6815 23.2927 46.6815 21.0576C46.6815 18.8226 45.6539 17.4274 44.0272 17.4274ZM43.669 23.4477C42.612 23.4477 41.9484 22.5304 41.9484 21.0641C41.9484 19.5913 42.612 18.6741 43.6749 18.6741C44.7437 18.6741 45.3837 19.5719 45.3837 21.0576C45.3837 22.5498 44.7437 23.4477 43.669 23.4477Z" fill="white"/>
<path d="M31.3719 24.5781H32.8205L29.6494 14.917H28.1826L25.0115 24.5781H26.4114L27.2209 22.0139H30.5685L31.3719 24.5781ZM28.846 16.6711H28.9495L30.2215 20.7552H27.5678L28.846 16.6711Z" fill="white"/>
<path d="M25.8596 7.62983V12.2904H27.3894C28.6519 12.2904 29.383 11.4345 29.383 9.94559C29.383 8.47927 28.6461 7.62983 27.3894 7.62983H25.8596ZM26.5173 8.28871H27.316C28.1939 8.28871 28.7136 8.90237 28.7136 9.95528C28.7136 11.0243 28.2027 11.6315 27.316 11.6315H26.5173V8.28871Z" fill="white"/>
<path d="M31.6222 12.3583C32.5559 12.3583 33.1284 11.6703 33.1284 10.5302C33.1284 9.39653 32.5529 8.70535 31.6222 8.70535C30.6885 8.70535 30.113 9.39653 30.113 10.5302C30.113 11.6703 30.6855 12.3583 31.6222 12.3583ZM31.6222 11.7414C31.0731 11.7414 30.7648 11.2989 30.7648 10.5302C30.7648 9.76795 31.0731 9.32224 31.6222 9.32224C32.1683 9.32224 32.4795 9.76795 32.4795 10.5302C32.4795 11.2956 32.1683 11.7414 31.6222 11.7414Z" fill="white"/>
<path d="M38.0042 8.77318H37.373L36.8034 11.4571H36.7534L36.0957 8.77318H35.4909L34.8332 11.4571H34.7862L34.2136 8.77318H33.5736L34.4544 12.2904H35.1033L35.761 9.70013H35.8109L36.4716 12.2904H37.1263L38.0042 8.77318Z" fill="white"/>
<path d="M38.7312 12.2904H39.3625V10.233C39.3625 9.68398 39.6591 9.34162 40.1259 9.34162C40.5928 9.34162 40.8159 9.62261 40.8159 10.1878V12.2904H41.4472V10.0134C41.4472 9.1769 41.0538 8.70535 40.3403 8.70535C39.8587 8.70535 39.5416 8.94113 39.386 9.33193H39.339V8.77318H38.7312V12.2904Z" fill="white"/>
<path d="M42.4414 12.2904H43.0727V7.40051H42.4414V12.2904Z" fill="white"/>
<path d="M45.4469 12.3583C46.3806 12.3583 46.9531 11.6703 46.9531 10.5302C46.9531 9.39653 46.3776 8.70535 45.4469 8.70535C44.5132 8.70535 43.9377 9.39653 43.9377 10.5302C43.9377 11.6703 44.5102 12.3583 45.4469 12.3583ZM45.4469 11.7414C44.8978 11.7414 44.5895 11.2989 44.5895 10.5302C44.5895 9.76795 44.8978 9.32224 45.4469 9.32224C45.993 9.32224 46.3042 9.76795 46.3042 10.5302C46.3042 11.2956 45.993 11.7414 45.4469 11.7414Z" fill="white"/>
<path d="M48.8341 11.764C48.4905 11.764 48.2409 11.5799 48.2409 11.2634C48.2409 10.9533 48.4406 10.7886 48.881 10.7563L49.6621 10.7014V10.9953C49.6621 11.4313 49.3097 11.764 48.8341 11.764ZM48.6726 12.3486C49.0924 12.3486 49.4418 12.1483 49.6327 11.7963H49.6826V12.2904H50.2904V9.88746C50.2904 9.1446 49.8382 8.70535 49.0367 8.70535C48.3114 8.70535 47.7946 9.09293 47.7301 9.6969H48.3408C48.4112 9.4482 48.6549 9.30609 49.0073 9.30609C49.4389 9.30609 49.6621 9.51603 49.6621 9.88746V10.1911L48.7959 10.246C48.0354 10.2976 47.6067 10.6626 47.6067 11.2956C47.6067 11.9384 48.056 12.3486 48.6726 12.3486Z" fill="white"/>
<path d="M52.4326 12.3486C52.8731 12.3486 53.246 12.1192 53.4368 11.7349H53.4867V12.2904H54.0916V7.40051H53.4603V9.33193H53.4133C53.2401 8.94436 52.8701 8.71504 52.4326 8.71504C51.6252 8.71504 51.1055 9.41914 51.1055 10.5302C51.1055 11.6445 51.6193 12.3486 52.4326 12.3486ZM52.6117 9.33839C53.1403 9.33839 53.472 9.80025 53.472 10.5334C53.472 11.2698 53.1432 11.7252 52.6117 11.7252C52.0774 11.7252 51.7573 11.2763 51.7573 10.5302C51.7573 9.79056 52.0803 9.33839 52.6117 9.33839Z" fill="white"/>
<path d="M58.1852 12.3583C59.1189 12.3583 59.6915 11.6703 59.6915 10.5302C59.6915 9.39653 59.116 8.70535 58.1852 8.70535C57.2515 8.70535 56.676 9.39653 56.676 10.5302C56.676 11.6703 57.2486 12.3583 58.1852 12.3583ZM58.1852 11.7414C57.6361 11.7414 57.3278 11.2989 57.3278 10.5302C57.3278 9.76795 57.6361 9.32224 58.1852 9.32224C58.7313 9.32224 59.0426 9.76795 59.0426 10.5302C59.0426 11.2956 58.7313 11.7414 58.1852 11.7414Z" fill="white"/>
<path d="M60.5271 12.2904H61.1584V10.233C61.1584 9.68398 61.4549 9.34162 61.9218 9.34162C62.3886 9.34162 62.6118 9.62261 62.6118 10.1878V12.2904H63.2431V10.0134C63.2431 9.1769 62.8496 8.70535 62.1361 8.70535C61.6546 8.70535 61.3375 8.94113 61.1819 9.33193H61.1349V8.77318H60.5271V12.2904Z" fill="white"/>
<path d="M66.1505 7.8979V8.78933H65.6425V9.37392H66.1505V11.3602C66.1505 12.0385 66.4294 12.3098 67.1312 12.3098C67.2545 12.3098 67.3719 12.2937 67.4747 12.2743V11.6961C67.3866 11.7058 67.3308 11.7123 67.2339 11.7123C66.9198 11.7123 66.7818 11.5508 66.7818 11.1826V9.37392H67.4747V8.78933H66.7818V7.8979H66.1505Z" fill="white"/>
<path d="M68.3221 12.2904H68.9534V10.2363C68.9534 9.70336 69.2411 9.34485 69.7579 9.34485C70.2042 9.34485 70.442 9.62907 70.442 10.1911V12.2904H71.0733V10.0199C71.0733 9.18336 70.6534 8.70858 69.9722 8.70858C69.4907 8.70858 69.153 8.94436 68.9974 9.33839H68.9475V7.40051H68.3221V12.2904Z" fill="white"/>
<path d="M73.3506 9.2964C73.8174 9.2964 74.1228 9.65491 74.1375 10.2072H72.5226C72.5578 9.65814 72.8837 9.2964 73.3506 9.2964ZM74.1345 11.3409C74.0171 11.6154 73.7558 11.7672 73.3741 11.7672C72.869 11.7672 72.5431 11.3764 72.5226 10.7595V10.7207H74.7805V10.4785C74.7805 9.37392 74.2432 8.70535 73.3535 8.70535C72.4521 8.70535 71.8795 9.41914 71.8795 10.5431C71.8795 11.6671 72.4404 12.3583 73.3564 12.3583C74.0876 12.3583 74.5985 11.9707 74.7423 11.3409H74.1345Z" fill="white"/>
<path d="M18.1609 16.649C18.1763 15.3409 18.8149 14.1031 19.8281 13.4179C19.1889 12.4138 18.1184 11.7772 17.0045 11.7388C15.8166 11.6017 14.6649 12.5208 14.0595 12.5208C13.4424 12.5208 12.5104 11.7524 11.5067 11.7752C10.1984 11.8216 8.97883 12.6398 8.34234 13.898C6.97414 16.5037 7.99469 20.3332 9.30532 22.4395C9.96105 23.4708 10.7274 24.6229 11.7302 24.582C12.7115 24.5373 13.0779 23.8938 14.2624 23.8938C15.4359 23.8938 15.7797 24.582 16.8029 24.5561C17.8558 24.5373 18.5192 23.5201 19.1519 22.479C19.6231 21.7441 19.9856 20.9319 20.2261 20.0724C18.9887 19.4967 18.1624 18.1269 18.1609 16.649Z" fill="white"/>
<path d="M16.2284 10.3536C16.8025 9.59552 17.0854 8.62108 17.0169 7.63727C16.1398 7.7386 15.3296 8.19973 14.7477 8.92876C14.1787 9.64107 13.8826 10.5984 13.9386 11.5446C14.816 11.5545 15.6786 11.1059 16.2284 10.3536Z" fill="white"/>
</svg>
