<svg width="153" height="48" viewBox="0 0 153 48" fill="none" xmlns="http://www.w3.org/2000/svg">
<rect x="0.248291" width="152" height="48" rx="8" fill="white"/>
<path d="M31.2299 12.3516H24.5263C19.9545 12.3516 16.2483 16.0637 16.2483 20.6428V27.3571C16.2483 31.9363 19.9545 35.6484 24.5263 35.6484H31.2299C35.8017 35.6484 39.5079 31.9363 39.5079 27.3571V20.6428C39.5079 16.0637 35.8017 12.3516 31.2299 12.3516Z" fill="#DE400F"/>
<path d="M22.2393 19.073V28.9429C22.2427 29.0794 22.2853 29.212 22.362 29.3248C22.4387 29.4376 22.5463 29.5259 22.6718 29.5792C22.7973 29.6324 22.9355 29.6482 23.0697 29.6248C23.204 29.6014 23.3287 29.5398 23.4289 29.4473L25.8189 27.121C25.8839 27.0567 25.9356 26.9801 25.9709 26.8956C26.0062 26.8112 26.0244 26.7206 26.0246 26.6291V23.9991C26.0246 23.8357 26.0894 23.6789 26.2047 23.5634C26.3201 23.4478 26.4766 23.3829 26.6398 23.3829H27.8933C28.0185 23.3833 28.1408 23.3445 28.243 23.2719C28.3452 23.1993 28.4221 23.0966 28.4632 22.978C28.5042 22.8595 28.5072 22.731 28.4718 22.6107C28.4363 22.4903 28.3643 22.3841 28.2656 22.3068L23.4006 18.5048C23.2942 18.4221 23.1669 18.3709 23.033 18.3571C22.8991 18.3432 22.764 18.3673 22.6431 18.4264C22.5222 18.4856 22.4202 18.5776 22.3488 18.6919C22.2774 18.8062 22.2395 18.9382 22.2393 19.073Z" fill="white"/>
<path d="M33.517 28.9252V19.0553C33.5136 18.9188 33.471 18.7862 33.3943 18.6734C33.3176 18.5606 33.21 18.4723 33.0845 18.419C32.959 18.3658 32.8208 18.35 32.6866 18.3734C32.5523 18.3968 32.4276 18.4584 32.3274 18.5509L29.9374 20.8772C29.8724 20.9416 29.8207 21.0181 29.7854 21.1026C29.7501 21.187 29.7319 21.2776 29.7317 21.3691V23.9991C29.7317 24.0802 29.7158 24.1604 29.6847 24.2353C29.6537 24.3102 29.6082 24.3782 29.5509 24.4354C29.4936 24.4927 29.4256 24.538 29.3507 24.5689C29.2759 24.5998 29.1957 24.6155 29.1148 24.6153H27.863C27.7378 24.6149 27.6155 24.6537 27.5133 24.7263C27.4111 24.7989 27.3342 24.9016 27.2931 25.0202C27.2521 25.1387 27.2491 25.2672 27.2845 25.3875C27.32 25.5079 27.392 25.6141 27.4907 25.6914L32.3557 29.4934C32.4621 29.5761 32.5894 29.6273 32.7233 29.6411C32.8572 29.655 32.9923 29.6309 33.1132 29.5718C33.2341 29.5126 33.3361 29.4206 33.4075 29.3063C33.4789 29.192 33.5168 29.06 33.517 28.9252Z" fill="white"/>
<path d="M48.1724 13.4136C48.873 13.0329 49.661 12.8431 50.4578 12.8631C51.094 12.8521 51.724 12.9895 52.2981 13.2644C52.8266 13.5193 53.2794 13.908 53.6119 14.392C53.9506 14.8922 54.1574 15.4701 54.2129 16.0719H52.3353C52.2494 15.6107 52.0085 15.1927 51.6527 14.8875C51.2863 14.5927 50.8264 14.4396 50.3567 14.456C50.0364 14.444 49.718 14.5094 49.4282 14.6466C49.1384 14.7839 48.8859 14.9889 48.6919 15.2444C48.2817 15.7724 48.0773 16.4668 48.0784 17.3274C48.0796 18.1881 48.2841 18.8795 48.6919 19.4016C48.8845 19.6592 49.1366 19.8662 49.4265 20.0051C49.7164 20.1439 50.0356 20.2104 50.3567 20.1989C50.8267 20.2157 51.287 20.0618 51.6527 19.7656C52.0089 19.4606 52.2498 19.0425 52.3353 18.5811H54.2129C54.1577 19.183 53.9509 19.761 53.6119 20.2611C53.2792 20.7453 52.8264 21.1345 52.2981 21.3905C51.7237 21.6645 51.0939 21.8019 50.4578 21.7918C49.6608 21.8113 48.8728 21.6208 48.1724 21.2395C47.532 20.8786 47.013 20.3353 46.6813 19.6786C46.3392 18.9422 46.1619 18.1397 46.1619 17.3274C46.1619 16.5152 46.3392 15.7127 46.6813 14.9763C47.0134 14.3193 47.5322 13.7756 48.1724 13.4136Z" fill="#1E1E1E"/>
<path d="M62.1276 21.7154H61.2251C60.4167 21.7154 60.0201 21.3644 60.0355 20.6624C59.8228 21.0107 59.5258 21.2996 59.172 21.5023C58.7902 21.7045 58.3627 21.8042 57.931 21.7918C57.2123 21.7918 56.6343 21.6266 56.197 21.2963C55.9816 21.1346 55.8091 20.9225 55.6944 20.6786C55.5798 20.4347 55.5265 20.1663 55.5392 19.897C55.5246 19.5904 55.5863 19.285 55.7187 19.0082C55.8512 18.7314 56.0503 18.4919 56.298 18.3112C56.8016 17.9383 57.5338 17.7524 58.4948 17.7536H59.7713V17.4393C59.7762 17.3058 59.7494 17.1731 59.693 17.052C59.6366 16.931 59.5522 16.8251 59.4468 16.7432C59.1978 16.5826 58.9094 16.4936 58.6133 16.4861C58.3172 16.4786 58.0247 16.5528 57.7678 16.7006C57.6688 16.7652 57.5843 16.8497 57.5196 16.9487C57.4548 17.0478 57.4114 17.1592 57.392 17.2759H55.6899C55.7081 16.9697 55.7966 16.6717 55.9485 16.4053C56.1004 16.1389 56.3116 15.9112 56.5658 15.7399C57.0917 15.3776 57.7891 15.1959 58.6579 15.1947C59.5668 15.1947 60.2701 15.3954 60.7677 15.7967C61.2653 16.198 61.5135 16.7793 61.5124 17.5405V19.81C61.5053 19.8681 61.5105 19.9271 61.5276 19.983C61.5447 20.039 61.5734 20.0908 61.6116 20.135C61.7023 20.2011 61.8136 20.2326 61.9255 20.2238H62.1258L62.1276 21.7154ZM58.4841 18.9328C58.1824 18.915 57.8826 18.9913 57.626 19.1512C57.5267 19.2205 57.4466 19.3138 57.3929 19.4225C57.3393 19.5311 57.314 19.6516 57.3193 19.7727C57.3165 19.8756 57.3385 19.9777 57.3832 20.0704C57.4279 20.1631 57.4941 20.2437 57.5764 20.3055C57.7785 20.4496 58.0236 20.5204 58.2714 20.5061C58.4699 20.5167 58.6686 20.4873 58.8556 20.4196C59.0426 20.3518 59.2141 20.2472 59.36 20.1119C59.4968 19.9713 59.604 19.8044 59.675 19.6213C59.746 19.4383 59.7793 19.2427 59.7731 19.0464V18.9221L58.4841 18.9328Z" fill="#1E1E1E"/>
<path d="M67.4731 16.6242C67.6697 16.3553 67.7753 16.0305 67.7745 15.6973C67.7857 15.5152 67.7574 15.3328 67.6916 15.1627C67.6258 14.9925 67.5241 14.8387 67.3933 14.7117C67.1085 14.4718 66.7437 14.3487 66.3721 14.3672C66.1863 14.3603 66.0013 14.3938 65.8296 14.4652C65.6579 14.5366 65.5037 14.6443 65.3774 14.7809C65.1101 15.0895 64.9728 15.49 64.9945 15.8979V16.0347H63.1789V15.7967C63.1723 15.2687 63.309 14.7489 63.5743 14.2926C63.8379 13.837 64.2269 13.4671 64.6948 13.2271C65.2142 12.9639 65.7902 12.8328 66.3721 12.8453C67.398 12.8453 68.1929 13.0957 68.7567 13.5965C69.0375 13.8498 69.259 14.1622 69.4052 14.5112C69.5514 14.8603 69.6188 15.2374 69.6024 15.6156C69.6161 16.1691 69.4609 16.7137 69.1574 17.1765C68.7706 17.7105 68.309 18.186 67.7869 18.5883L65.8207 20.1865H69.6397V21.703H63.2179V20.3232L66.5316 17.5654C66.8864 17.2957 67.2031 16.9791 67.4731 16.6242Z" fill="#1E1E1E"/>
<path d="M52.1969 26.107V27.1103H47.7024V29.9197H51.4451V30.9248H47.7024V33.885H52.36V34.8883H46.6138V26.107H52.1969Z" fill="#1E1E1E"/>
<path d="M53.2627 30.8963H57.431V31.7487H53.2627V30.8963Z" fill="#1E1E1E"/>
<path d="M59.9611 26.6841C59.9561 26.8322 59.9002 26.9741 59.8029 27.0857C59.7057 27.1974 59.573 27.2721 59.4271 27.2973C59.2813 27.3224 59.1313 27.2965 59.0024 27.2238C58.8734 27.1512 58.7734 27.0362 58.7191 26.8984C58.6649 26.7605 58.6597 26.6081 58.7045 26.4668C58.7493 26.3256 58.8414 26.2041 58.9651 26.1229C59.0889 26.0417 59.2368 26.0056 59.384 26.0208C59.5311 26.036 59.6686 26.1016 59.7732 26.2064C59.8356 26.2688 59.8845 26.3435 59.9168 26.4256C59.9492 26.5078 59.9642 26.5958 59.9611 26.6841ZM59.8104 28.4883V34.8812H58.7839V28.4883H59.8104Z" fill="#1E1E1E"/>
<path d="M66.9234 31.3225V34.8848H65.8968V31.3865C65.8968 30.7259 65.7485 30.2221 65.4518 29.8753C65.1557 29.5201 64.7267 29.355 64.1682 29.355C63.8994 29.3415 63.6311 29.3912 63.3848 29.5C63.1386 29.6088 62.9211 29.7738 62.7498 29.9818C62.407 30.3997 62.2356 30.968 62.2356 31.6866V34.883H61.2126V28.4901H62.0991L62.2356 29.3567C62.7191 28.7293 63.4206 28.4156 64.3402 28.4156C65.1167 28.4156 65.7402 28.6523 66.2107 29.1259C66.6811 29.5994 66.9187 30.3316 66.9234 31.3225Z" fill="#1E1E1E"/>
<path d="M68.5137 28.4884L70.4409 33.7181L72.3575 28.4884H73.4337L71.0419 34.8812H69.8009L67.4109 28.4884H68.5137Z" fill="#1E1E1E"/>
<path d="M74.1234 33.3931C73.8598 32.8632 73.7227 32.2794 73.7227 31.6874C73.7227 31.0955 73.8598 30.5116 74.1234 29.9818C74.3806 29.4988 74.7691 29.0986 75.2439 28.8275C75.7502 28.5559 76.3157 28.4138 76.8901 28.4138C77.4645 28.4138 78.0299 28.5559 78.5363 28.8275C79.0114 29.0982 79.4 29.4985 79.6568 29.9818C79.9204 30.5116 80.0575 31.0955 80.0575 31.6874C80.0575 32.2794 79.9204 32.8632 79.6568 33.3931C79.4 33.8759 79.0114 34.2756 78.5363 34.5456C78.0299 34.8171 77.4645 34.9592 76.8901 34.9592C76.3157 34.9592 75.7502 34.8171 75.2439 34.5456C74.7692 34.2751 74.3807 33.8755 74.1234 33.3931ZM78.7437 32.903C78.9167 32.5208 79.0062 32.1061 79.0062 31.6865C79.0062 31.267 78.9167 30.8522 78.7437 30.4701C78.5804 30.1248 78.3221 29.8334 77.9991 29.6302C77.6628 29.4336 77.2804 29.33 76.891 29.33C76.5016 29.33 76.1192 29.4336 75.7829 29.6302C75.459 29.8324 75.2004 30.1241 75.0382 30.4701C74.8641 30.8519 74.774 31.2668 74.774 31.6865C74.774 32.1063 74.8641 32.5211 75.0382 32.903C75.1999 33.2493 75.4586 33.5411 75.7829 33.7429C76.1188 33.9406 76.5014 34.0448 76.891 34.0448C77.2806 34.0448 77.6631 33.9406 77.9991 33.7429C78.3225 33.5401 78.5809 33.2486 78.7437 32.903Z" fill="#1E1E1E"/>
<path d="M82.412 26.6841C82.407 26.8322 82.3511 26.9741 82.2539 27.0857C82.1566 27.1974 82.0239 27.2721 81.8781 27.2973C81.7323 27.3224 81.5822 27.2965 81.4533 27.2238C81.3243 27.1512 81.2243 27.0362 81.1701 26.8984C81.1158 26.7605 81.1107 26.6081 81.1555 26.4668C81.2003 26.3256 81.2923 26.2041 81.416 26.1229C81.5398 26.0417 81.6877 26.0056 81.8349 26.0208C81.9821 26.036 82.1195 26.1016 82.2241 26.2064C82.2865 26.2688 82.3354 26.3435 82.3678 26.4256C82.4001 26.5078 82.4152 26.5958 82.412 26.6841ZM82.2631 28.4883V34.8812H81.2348V28.4883H82.2631Z" fill="#1E1E1E"/>
<path d="M86.5449 34.9594C85.9749 34.9725 85.4121 34.8295 84.9174 34.5456C84.4509 34.2711 84.0726 33.8688 83.827 33.386C83.5603 32.8555 83.427 32.2679 83.4387 31.6741C83.4271 31.0818 83.563 30.4959 83.8341 29.9694C84.0848 29.4876 84.4698 29.0892 84.9422 28.8222C85.4433 28.5435 86.0091 28.4026 86.5822 28.4138C87.2532 28.3878 87.9115 28.6012 88.4403 29.0158C88.9399 29.4352 89.2675 30.0245 89.3604 30.6708H88.3215C88.2341 30.2811 88.0125 29.9347 87.6956 29.6923C87.3625 29.4485 86.9574 29.3234 86.5449 29.3372C86.2647 29.3278 85.9859 29.3815 85.7291 29.4943C85.4723 29.6071 85.244 29.7761 85.061 29.9889C84.6685 30.463 84.4657 31.066 84.4918 31.6812C84.4641 32.3027 84.6668 32.9124 85.061 33.3931C85.3939 33.7558 85.8466 33.9855 86.3355 34.0397C86.8244 34.0939 87.3164 33.9689 87.7204 33.6879C88.0412 33.4404 88.2596 33.0832 88.3339 32.6846H89.3604C89.2598 33.3378 88.9267 33.9326 88.4225 34.3591C87.8873 34.7754 87.222 34.9881 86.5449 34.9594Z" fill="#1E1E1E"/>
<path d="M91.6405 28.8222C92.1196 28.545 92.6652 28.4038 93.2184 28.4137C93.7584 28.4031 94.2923 28.5283 94.7715 28.7778C95.2205 29.0182 95.5901 29.384 95.8353 29.8308C96.1033 30.328 96.2451 30.8836 96.2484 31.4486C96.2484 31.5409 96.2395 31.6865 96.2236 31.8872H91.2593V31.976C91.2495 32.5332 91.4561 33.0725 91.8355 33.4801C92.0234 33.6688 92.2484 33.8165 92.4962 33.9137C92.744 34.0109 93.0092 34.0555 93.2751 34.0448C93.6923 34.057 94.1026 33.9364 94.4471 33.7003C94.7695 33.4676 94.9979 33.1267 95.0907 32.7396H96.1403C96.0288 33.3676 95.696 33.9347 95.2024 34.3378C94.6824 34.7577 94.0296 34.9775 93.362 34.9576C92.7805 34.971 92.2057 34.8307 91.6954 34.5509C91.2227 34.2812 90.8379 33.8803 90.5873 33.3966C90.3173 32.8672 90.182 32.2792 90.1937 31.6848C90.181 31.09 90.3118 30.5009 90.5749 29.9676C90.8137 29.4917 91.1834 29.0943 91.6405 28.8222ZM94.5765 29.7687C94.1979 29.4589 93.7193 29.2985 93.2308 29.3176C92.7611 29.312 92.306 29.4816 91.9543 29.7935C91.7732 29.9491 91.6246 30.139 91.5172 30.3524C91.4098 30.5657 91.3456 30.7983 91.3284 31.0366H95.1846C95.1732 30.7952 95.1135 30.5586 95.009 30.3408C94.9046 30.123 94.7575 29.9285 94.5765 29.7687Z" fill="#1E1E1E"/>
<path d="M119.248 19H129.248V22L133.248 18L129.248 14V17H117.248V23H119.248V19ZM129.248 29H119.248V26L115.248 30L119.248 34V31H131.248V25H129.248V29Z" fill="#505052"/>
</svg>
