<svg width="100" height="32" viewBox="0 0 100 32" fill="none" xmlns="http://www.w3.org/2000/svg">
<rect x="0.672815" y="1.2048" width="98.3351" height="30.4202" rx="3.18351" fill="black"/>
<rect x="0.672815" y="1.2048" width="98.3351" height="30.4202" rx="3.18351" stroke="#A6A6A6" stroke-width="0.707447"/>
<path d="M48.5216 17.7776C46.8577 17.7776 45.5015 19.1698 45.5015 21.0873C45.5015 22.9931 46.8577 24.3969 48.5216 24.3969C50.1862 24.3969 51.5424 22.9931 51.5424 21.0873C51.5417 19.1698 50.1855 17.7776 48.5216 17.7776ZM48.5216 23.0942C47.6097 23.0942 46.8237 22.267 46.8237 21.088C46.8237 19.8966 47.6104 19.0819 48.5216 19.0819C49.4335 19.0819 50.2194 19.8966 50.2194 21.088C50.2194 22.2662 49.4335 23.0942 48.5216 23.0942ZM41.9324 17.7776C40.2685 17.7776 38.9123 19.1698 38.9123 21.0873C38.9123 22.9931 40.2685 24.3969 41.9324 24.3969C43.597 24.3969 44.9532 22.9931 44.9532 21.0873C44.9532 19.1698 43.597 17.7776 41.9324 17.7776ZM41.9324 23.0942C41.0205 23.0942 40.2345 22.267 40.2345 21.088C40.2345 19.8966 41.0212 19.0819 41.9324 19.0819C42.8443 19.0819 43.6303 19.8966 43.6303 21.088C43.631 22.2662 42.8443 23.0942 41.9324 23.0942ZM34.0953 18.7939V20.1978H37.1501C37.0588 20.9877 36.8197 21.5643 36.4546 21.9651C36.0104 22.4538 35.315 22.9931 34.0953 22.9931C32.2149 22.9931 30.7448 21.3254 30.7448 19.257C30.7448 17.1885 32.2149 15.5209 34.0953 15.5209C35.1098 15.5209 35.8505 15.9598 36.3973 16.524L37.2979 15.5333C36.5339 14.731 35.5201 14.117 34.0953 14.117C31.5195 14.117 29.354 16.4236 29.354 19.257C29.354 22.0904 31.5195 24.3969 34.0953 24.3969C35.4854 24.3969 36.5346 23.895 37.3545 22.9549C38.1978 22.0273 38.4603 20.7231 38.4603 19.6702C38.4603 19.3449 38.4376 19.0437 38.3916 18.7932H34.0953V18.7939ZM66.1483 19.8842C65.8979 19.1449 65.1338 17.7776 63.5725 17.7776C62.0225 17.7776 60.7342 19.1192 60.7342 21.0873C60.7342 22.9425 62.0112 24.3969 63.7204 24.3969C65.0992 24.3969 65.8972 23.4693 66.2283 22.93L65.2025 22.1775C64.8608 22.7292 64.3931 23.0927 63.7204 23.0927C63.0483 23.0927 62.5693 22.7542 62.2616 22.0896L66.2849 20.2593L66.1483 19.8842ZM62.0451 20.9877C62.0112 19.7083 62.9457 19.057 63.6185 19.057C64.1427 19.057 64.587 19.3457 64.7355 19.7589L62.0451 20.9877ZM58.7746 24.1969H60.0961V14.4687H58.7746V24.1969ZM56.6084 18.5177H56.5631C56.2667 18.1286 55.6965 17.7776 54.9791 17.7776C53.4744 17.7776 52.0956 19.2321 52.0956 21.1005C52.0956 22.9557 53.4744 24.3977 54.9791 24.3977C55.6972 24.3977 56.2667 24.0467 56.5631 23.646H56.6084V24.1222C56.6084 25.3883 55.9929 26.0654 55.0018 26.0654C54.1925 26.0654 53.6909 25.4265 53.4857 24.8872L52.3347 25.414C52.6651 26.291 53.5423 27.3696 55.0018 27.3696C56.5518 27.3696 57.8627 26.3665 57.8627 23.9214V17.9792H56.6091V18.5177H56.6084ZM55.093 23.0942C54.1811 23.0942 53.4178 22.2538 53.4178 21.1005C53.4178 19.934 54.1811 19.0819 55.093 19.0819C55.9929 19.0819 56.6997 19.934 56.6997 21.1005C56.6997 22.2538 55.9929 23.0942 55.093 23.0942ZM72.3413 14.4687H69.1783V24.1969H70.4977V20.5114H72.3406C73.8036 20.5114 75.2425 19.3465 75.2425 17.4905C75.2425 15.6345 73.8043 14.4687 72.3413 14.4687ZM72.3753 19.1573H70.4977V15.8228H72.3753C73.3621 15.8228 73.9224 16.7216 73.9224 17.4905C73.9224 18.2438 73.3621 19.1573 72.3753 19.1573ZM80.5335 17.7605C79.5778 17.7605 78.5881 18.2235 78.1784 19.25L79.35 19.7877C79.6004 19.25 80.0673 19.0741 80.5562 19.0741C81.2389 19.0741 81.9329 19.5247 81.9442 20.3254V20.4258C81.7051 20.2756 81.1929 20.0507 80.5675 20.0507C79.3047 20.0507 78.0186 20.8141 78.0186 22.2405C78.0186 23.5425 79.0543 24.3806 80.2145 24.3806C81.1016 24.3806 81.5912 23.9425 81.8982 23.4288H81.9435V24.1798H83.2183V20.4499C83.219 18.7239 82.0461 17.7605 80.5335 17.7605ZM80.3737 23.0919C79.9421 23.0919 79.3387 22.8538 79.3387 22.2654C79.3387 21.5145 80.09 21.2266 80.7387 21.2266C81.3181 21.2266 81.5919 21.3643 81.9442 21.5518C81.8416 22.4538 81.1363 23.0919 80.3737 23.0919ZM87.8606 17.9729L86.3473 22.1907H86.3021L84.7315 17.9729H83.3096L85.6647 23.8677L84.3219 27.147H85.6986L89.3285 17.9729H87.8606ZM75.9712 24.1969H77.2906V14.4687H75.9712V24.1969Z" fill="white"/>
<path d="M33.8649 8.82205C33.8649 9.47418 33.6894 9.99323 33.3378 10.3808C32.9388 10.8415 32.4181 11.0718 31.7786 11.0718C31.1659 11.0718 30.6446 10.8383 30.2166 10.3714C29.7878 9.90374 29.5735 9.32477 29.5735 8.63373C29.5735 7.94192 29.7878 7.36294 30.2166 6.89603C30.6446 6.42834 31.1659 6.19488 31.7786 6.19488C32.0828 6.19488 32.3736 6.26025 32.6495 6.39021C32.9261 6.52094 33.1475 6.69448 33.3131 6.91159L32.9402 7.32248C32.6594 6.95284 32.2724 6.76841 31.7779 6.76841C31.3308 6.76841 30.9445 6.94117 30.6184 7.28668C30.2923 7.6322 30.1295 8.08122 30.1295 8.63295C30.1295 9.18469 30.2923 9.63371 30.6184 9.97922C30.9445 10.3247 31.3308 10.4975 31.7779 10.4975C32.2519 10.4975 32.6473 10.324 32.9636 9.97611C33.1687 9.74966 33.2876 9.43449 33.3194 9.03061H31.7779V8.46953H33.8344C33.8557 8.59171 33.8649 8.70922 33.8649 8.82205Z" fill="white"/>
<path d="M37.1263 6.87195H35.1935V8.35207H36.9367V8.91315H35.1935V10.3933H37.1263V10.9676H34.6481V6.29842H37.1263V6.87195Z" fill="white"/>
<path d="M39.4261 10.9676H38.8806V6.87195H37.695V6.29842H40.6118V6.87195H39.4261V10.9676Z" fill="white"/>
<path d="M42.7221 10.9676V6.29842H43.2675V10.9676H42.7221Z" fill="white"/>
<path d="M45.6864 10.9676H45.1409V6.87195H43.9552V6.29842H46.872V6.87195H45.6864V10.9676Z" fill="white"/>
<path d="M52.3935 10.3645C51.9761 10.8361 51.4576 11.0718 50.8371 11.0718C50.2167 11.0718 49.6981 10.8361 49.2815 10.3645C48.8641 9.89288 48.6561 9.31546 48.6561 8.63299C48.6561 7.95052 48.8641 7.3731 49.2815 6.90151C49.6981 6.42993 50.2167 6.19336 50.8371 6.19336C51.454 6.19336 51.9719 6.43071 52.3907 6.90463C52.8095 7.37854 53.0189 7.95441 53.0189 8.63299C53.0189 9.31546 52.8102 9.89288 52.3935 10.3645ZM49.684 9.97304C49.9981 10.3232 50.3822 10.4975 50.8371 10.4975C51.292 10.4975 51.6769 10.3224 51.9903 9.97304C52.3044 9.62285 52.4621 9.17617 52.4621 8.63299C52.4621 8.08981 52.3044 7.64313 51.9903 7.29294C51.6769 6.94276 51.292 6.76844 50.8371 6.76844C50.3822 6.76844 49.9981 6.94354 49.684 7.29294C49.3706 7.64313 49.2128 8.08981 49.2128 8.63299C49.2128 9.17617 49.3706 9.62285 49.684 9.97304Z" fill="white"/>
<path d="M53.7844 10.9676V6.29842H54.448L56.5109 9.93024H56.5342L56.5109 9.03065V6.29842H57.0563V10.9676H56.4868L54.3284 7.1591H54.305L54.3284 8.05869V10.9676H53.7844Z" fill="white"/>
<path d="M33.8649 8.82205C33.8649 9.47418 33.6894 9.99323 33.3378 10.3808C32.9388 10.8415 32.4181 11.0718 31.7786 11.0718C31.1659 11.0718 30.6446 10.8383 30.2166 10.3714C29.7878 9.90374 29.5735 9.32477 29.5735 8.63373C29.5735 7.94192 29.7878 7.36294 30.2166 6.89603C30.6446 6.42834 31.1659 6.19488 31.7786 6.19488C32.0828 6.19488 32.3736 6.26025 32.6495 6.39021C32.9261 6.52094 33.1475 6.69448 33.3131 6.91159L32.9402 7.32248C32.6594 6.95284 32.2724 6.76841 31.7779 6.76841C31.3308 6.76841 30.9445 6.94117 30.6184 7.28668C30.2923 7.6322 30.1295 8.08122 30.1295 8.63295C30.1295 9.18469 30.2923 9.63371 30.6184 9.97922C30.9445 10.3247 31.3308 10.4975 31.7779 10.4975C32.2519 10.4975 32.6473 10.324 32.9636 9.97611C33.1687 9.74966 33.2876 9.43449 33.3194 9.03061H31.7779V8.46953H33.8344C33.8557 8.59171 33.8649 8.70922 33.8649 8.82205Z" stroke="white" stroke-width="0.141489" stroke-miterlimit="10"/>
<path d="M37.1263 6.87195H35.1935V8.35207H36.9367V8.91315H35.1935V10.3933H37.1263V10.9676H34.6481V6.29842H37.1263V6.87195Z" stroke="white" stroke-width="0.141489" stroke-miterlimit="10"/>
<path d="M39.4261 10.9676H38.8806V6.87195H37.695V6.29842H40.6118V6.87195H39.4261V10.9676Z" stroke="white" stroke-width="0.141489" stroke-miterlimit="10"/>
<path d="M42.7221 10.9676V6.29842H43.2675V10.9676H42.7221Z" stroke="white" stroke-width="0.141489" stroke-miterlimit="10"/>
<path d="M45.6864 10.9676H45.1409V6.87195H43.9552V6.29842H46.872V6.87195H45.6864V10.9676Z" stroke="white" stroke-width="0.141489" stroke-miterlimit="10"/>
<path d="M52.3935 10.3645C51.9761 10.8361 51.4576 11.0718 50.8371 11.0718C50.2167 11.0718 49.6981 10.8361 49.2815 10.3645C48.8641 9.89288 48.6561 9.31546 48.6561 8.63299C48.6561 7.95052 48.8641 7.3731 49.2815 6.90151C49.6981 6.42993 50.2167 6.19336 50.8371 6.19336C51.454 6.19336 51.9719 6.43071 52.3907 6.90463C52.8095 7.37854 53.0189 7.95441 53.0189 8.63299C53.0189 9.31546 52.8102 9.89288 52.3935 10.3645ZM49.684 9.97304C49.9981 10.3232 50.3822 10.4975 50.8371 10.4975C51.292 10.4975 51.6769 10.3224 51.9903 9.97304C52.3044 9.62285 52.4621 9.17617 52.4621 8.63299C52.4621 8.08981 52.3044 7.64313 51.9903 7.29294C51.6769 6.94276 51.292 6.76844 50.8371 6.76844C50.3822 6.76844 49.9981 6.94354 49.684 7.29294C49.3706 7.64313 49.2128 8.08981 49.2128 8.63299C49.2128 9.17617 49.3706 9.62285 49.684 9.97304Z" stroke="white" stroke-width="0.141489" stroke-miterlimit="10"/>
<path d="M53.7844 10.9676V6.29842H54.448L56.5109 9.93024H56.5342L56.5109 9.03065V6.29842H57.0563V10.9676H56.4868L54.3284 7.1591H54.305L54.3284 8.05869V10.9676H53.7844Z" stroke="white" stroke-width="0.141489" stroke-miterlimit="10"/>
<g filter="url(#filter0_ii_371_7528)">
<path d="M7.70206 6.71709C7.49619 6.95677 7.37451 7.32875 7.37451 7.81045V25.0209C7.37451 25.5034 7.49619 25.8746 7.70206 26.1143L7.75441 26.1703L16.519 16.5293V16.4157V16.3021L7.75441 6.66028L7.70206 6.71709Z" fill="url(#paint0_linear_371_7528)"/>
<path d="M19.4401 19.744L16.519 16.5293V16.4157V16.3021L19.4408 13.0882L19.5066 13.1294L22.9681 15.2928C23.9564 15.9107 23.9564 16.9215 22.9681 17.5402L19.5066 19.7036L19.4401 19.744Z" fill="url(#paint1_linear_371_7528)"/>
<g filter="url(#filter1_i_371_7528)">
<path d="M19.5064 19.7028L16.5181 16.4157L7.7019 26.1143C8.02733 26.494 8.5657 26.5407 9.17198 26.1625L19.5064 19.7028Z" fill="url(#paint2_linear_371_7528)"/>
</g>
<path d="M19.5064 13.1286L9.17198 6.66961C8.5657 6.29063 8.02733 6.3381 7.7019 6.71786L16.5188 16.4165L19.5064 13.1286Z" fill="url(#paint3_linear_371_7528)"/>
</g>
<defs>
<filter id="filter0_ii_371_7528" x="7.37451" y="6.40808" width="16.335" height="20.0157" filterUnits="userSpaceOnUse" color-interpolation-filters="sRGB">
<feFlood flood-opacity="0" result="BackgroundImageFix"/>
<feBlend mode="normal" in="SourceGraphic" in2="BackgroundImageFix" result="shape"/>
<feColorMatrix in="SourceAlpha" type="matrix" values="0 0 0 0 0 0 0 0 0 0 0 0 0 0 0 0 0 0 127 0" result="hardAlpha"/>
<feOffset dy="-0.106117"/>
<feComposite in2="hardAlpha" operator="arithmetic" k2="-1" k3="1"/>
<feColorMatrix type="matrix" values="0 0 0 0 0 0 0 0 0 0 0 0 0 0 0 0 0 0 0.12 0"/>
<feBlend mode="normal" in2="shape" result="effect1_innerShadow_371_7528"/>
<feColorMatrix in="SourceAlpha" type="matrix" values="0 0 0 0 0 0 0 0 0 0 0 0 0 0 0 0 0 0 127 0" result="hardAlpha"/>
<feOffset dy="0.106117"/>
<feComposite in2="hardAlpha" operator="arithmetic" k2="-1" k3="1"/>
<feColorMatrix type="matrix" values="0 0 0 0 1 0 0 0 0 1 0 0 0 0 1 0 0 0 0.25 0"/>
<feBlend mode="normal" in2="effect1_innerShadow_371_7528" result="effect2_innerShadow_371_7528"/>
</filter>
<filter id="filter1_i_371_7528" x="7.7019" y="16.4157" width="11.8044" height="10.0081" filterUnits="userSpaceOnUse" color-interpolation-filters="sRGB">
<feFlood flood-opacity="0" result="BackgroundImageFix"/>
<feBlend mode="normal" in="SourceGraphic" in2="BackgroundImageFix" result="shape"/>
<feColorMatrix in="SourceAlpha" type="matrix" values="0 0 0 0 0 0 0 0 0 0 0 0 0 0 0 0 0 0 127 0" result="hardAlpha"/>
<feOffset dy="-0.106117"/>
<feComposite in2="hardAlpha" operator="arithmetic" k2="-1" k3="1"/>
<feColorMatrix type="matrix" values="0 0 0 0 0 0 0 0 0 0 0 0 0 0 0 0 0 0 0.08 0"/>
<feBlend mode="normal" in2="shape" result="effect1_innerShadow_371_7528"/>
</filter>
<linearGradient id="paint0_linear_371_7528" x1="15.7421" y1="7.62835" x2="2.74154" y2="19.447" gradientUnits="userSpaceOnUse">
<stop stop-color="#00A0FF"/>
<stop offset="0.0066" stop-color="#00A1FF"/>
<stop offset="0.2601" stop-color="#00BEFF"/>
<stop offset="0.5122" stop-color="#00D2FF"/>
<stop offset="0.7604" stop-color="#00DFFF"/>
<stop offset="1" stop-color="#00E3FF"/>
</linearGradient>
<linearGradient id="paint1_linear_371_7528" x1="24.2546" y1="16.4157" x2="7.13731" y2="16.4157" gradientUnits="userSpaceOnUse">
<stop stop-color="#FFE000"/>
<stop offset="0.4087" stop-color="#FFBD00"/>
<stop offset="0.7754" stop-color="#FFA500"/>
<stop offset="1" stop-color="#FF9C00"/>
</linearGradient>
<linearGradient id="paint2_linear_371_7528" x1="17.8836" y1="18.2008" x2="0.253216" y2="34.2283" gradientUnits="userSpaceOnUse">
<stop stop-color="#FF3A44"/>
<stop offset="1" stop-color="#C31162"/>
</linearGradient>
<linearGradient id="paint3_linear_371_7528" x1="5.48151" y1="0.988659" x2="13.3539" y2="8.14541" gradientUnits="userSpaceOnUse">
<stop stop-color="#32A071"/>
<stop offset="0.0685" stop-color="#2DA771"/>
<stop offset="0.4762" stop-color="#15CF74"/>
<stop offset="0.8009" stop-color="#06E775"/>
<stop offset="1" stop-color="#00F076"/>
</linearGradient>
</defs>
</svg>
