<svg width="174" height="57" viewBox="0 0 174 57" fill="none" xmlns="http://www.w3.org/2000/svg">
<rect width="174" height="56.033" rx="8" fill="#505052"/>
<path d="M32.5997 12H23.3823C17.096 12 12 17.1041 12 23.4004V32.6326C12 38.9288 17.096 44.033 23.3823 44.033H32.5997C38.886 44.033 43.982 38.9288 43.982 32.6326V23.4004C43.982 17.1041 38.886 12 32.5997 12Z" fill="#DE400F"/>
<path d="M20.2378 21.2419V34.813C20.2425 35.0006 20.3011 35.1829 20.4066 35.3381C20.5121 35.4932 20.66 35.6146 20.8325 35.6878C21.0051 35.7609 21.1951 35.7828 21.3797 35.7506C21.5643 35.7184 21.7358 35.6337 21.8736 35.5064L25.1598 32.3078C25.2492 32.2193 25.3202 32.114 25.3688 31.998C25.4173 31.8819 25.4424 31.7573 25.4426 31.6314V28.0152C25.4426 27.7905 25.5317 27.575 25.6903 27.4161C25.849 27.2572 26.0641 27.1679 26.2885 27.1679H28.0121C28.1843 27.1685 28.3524 27.1152 28.4929 27.0154C28.6334 26.9155 28.7393 26.7742 28.7957 26.6112C28.8521 26.4482 28.8562 26.2716 28.8075 26.1062C28.7588 25.9407 28.6597 25.7946 28.524 25.6883L21.8346 20.4605C21.6884 20.3468 21.5133 20.2765 21.3292 20.2574C21.1451 20.2384 20.9594 20.2714 20.7931 20.3528C20.6268 20.4342 20.4866 20.5606 20.3885 20.7178C20.2903 20.8749 20.2381 21.0565 20.2378 21.2419Z" fill="white"/>
<path d="M35.7445 34.7885V21.2174C35.7398 21.0298 35.6812 20.8475 35.5757 20.6924C35.4702 20.5372 35.3224 20.4158 35.1498 20.3426C34.9772 20.2695 34.7872 20.2477 34.6026 20.2798C34.418 20.312 34.2465 20.3968 34.1087 20.524L30.8225 23.7226C30.7331 23.8111 30.6621 23.9164 30.6135 24.0325C30.565 24.1486 30.5399 24.2731 30.5398 24.399V28.0152C30.5398 28.1267 30.5178 28.237 30.4751 28.34C30.4325 28.443 30.3699 28.5365 30.2911 28.6152C30.2123 28.6939 30.1188 28.7562 30.0159 28.7987C29.9129 28.8411 29.8027 28.8628 29.6914 28.8625H27.9703C27.798 28.8619 27.6299 28.9153 27.4894 29.0151C27.3489 29.1149 27.2431 29.2562 27.1867 29.4192C27.1303 29.5822 27.1261 29.7588 27.1748 29.9243C27.2235 30.0897 27.3227 30.2359 27.4583 30.3422L34.1477 35.5699C34.2939 35.6836 34.469 35.7539 34.6531 35.773C34.8372 35.792 35.0229 35.759 35.1892 35.6776C35.3555 35.5962 35.4957 35.4698 35.5939 35.3126C35.692 35.1555 35.7442 34.9739 35.7445 34.7885Z" fill="white"/>
<path d="M55.8956 13.4601C56.8588 12.9366 57.9424 12.6756 59.038 12.7031C59.9128 12.688 60.7791 12.877 61.5684 13.255C62.2951 13.6055 62.9178 14.1399 63.3749 14.8055C63.8406 15.4932 64.1249 16.2879 64.2013 17.1153H61.6196C61.5014 16.4811 61.1703 15.9064 60.6811 15.4867C60.1772 15.0814 59.5448 14.8709 58.899 14.8934C58.4586 14.8769 58.0207 14.9669 57.6223 15.1555C57.2239 15.3442 56.8767 15.6262 56.6099 15.9775C56.0459 16.7035 55.7648 17.6582 55.7664 18.8416C55.768 20.0251 56.0492 20.9757 56.6099 21.6936C56.8748 22.0478 57.2213 22.3325 57.62 22.5234C58.0186 22.7143 58.4574 22.8058 58.899 22.7899C59.5453 22.813 60.1782 22.6015 60.6811 22.1941C61.1707 21.7748 61.502 21.1999 61.6196 20.5655H64.2013C64.1253 21.3931 63.841 22.1878 63.3749 22.8754C62.9174 23.5412 62.2949 24.0764 61.5684 24.4283C60.7787 24.8051 59.9126 24.994 59.038 24.9801C57.9422 25.0069 56.8586 24.745 55.8956 24.2208C55.015 23.7245 54.3014 22.9775 53.8454 22.0745C53.3749 21.0619 53.1311 19.9585 53.1311 18.8416C53.1311 17.7248 53.3749 16.6214 53.8454 15.6088C54.302 14.7055 55.0154 13.9579 55.8956 13.4601Z" fill="white"/>
<path d="M75.0839 24.8752H73.843C72.7314 24.8752 72.1861 24.3925 72.2072 23.4272C71.9148 23.9062 71.5065 24.3034 71.02 24.5822C70.495 24.8602 69.9071 24.9973 69.3135 24.9802C68.3254 24.9802 67.5306 24.7531 66.9293 24.2989C66.6332 24.0765 66.396 23.7849 66.2383 23.4495C66.0806 23.1141 66.0074 22.7452 66.0249 22.3749C66.0048 21.9533 66.0896 21.5333 66.2717 21.1527C66.4539 20.7721 66.7276 20.4428 67.0683 20.1944C67.7606 19.6816 68.7674 19.4261 70.0887 19.4277H71.844V18.9955C71.8508 18.812 71.8139 18.6294 71.7363 18.463C71.6587 18.2966 71.5427 18.151 71.3979 18.0384C71.0554 17.8175 70.6589 17.6952 70.2517 17.6849C69.8446 17.6745 69.4424 17.7765 69.0892 17.9798C68.9531 18.0686 68.8368 18.1847 68.7478 18.3209C68.6589 18.4571 68.5991 18.6103 68.5724 18.7709H66.2321C66.2571 18.3498 66.3788 17.9401 66.5876 17.5738C66.7965 17.2074 67.087 16.8943 67.4364 16.6588C68.1596 16.1607 69.1185 15.9108 70.313 15.9092C71.5628 15.9092 72.5298 16.1851 73.214 16.7369C73.8983 17.2888 74.2396 18.088 74.2379 19.1347V22.2552C74.2283 22.3351 74.2354 22.4162 74.2589 22.4931C74.2825 22.5701 74.3218 22.6413 74.3745 22.7021C74.4991 22.793 74.6522 22.8363 74.806 22.8241H75.0814L75.0839 24.8752ZM70.0741 21.049C69.6593 21.0246 69.2471 21.1295 68.8942 21.3493C68.7577 21.4447 68.6475 21.573 68.5737 21.7224C68.5 21.8718 68.4652 22.0374 68.4725 22.2039C68.4687 22.3454 68.4988 22.4858 68.5603 22.6132C68.6218 22.7407 68.7129 22.8515 68.8259 22.9365C69.1039 23.1347 69.441 23.232 69.7816 23.2124C70.0546 23.2269 70.3278 23.1865 70.5849 23.0934C70.842 23.0002 71.0778 22.8564 71.2784 22.6703C71.4666 22.4769 71.6139 22.2475 71.7115 21.9958C71.8091 21.7441 71.855 21.4752 71.8464 21.2053V21.0344L70.0741 21.049Z" fill="white"/>
<path d="M82.4341 17.8749C82.7044 17.5051 82.8496 17.0585 82.8485 16.6003C82.8639 16.3499 82.825 16.0991 82.7346 15.8652C82.6441 15.6313 82.5042 15.4198 82.3243 15.2451C81.9328 14.9153 81.4311 14.7461 80.9202 14.7714C80.6647 14.762 80.4103 14.808 80.1743 14.9062C79.9382 15.0044 79.7261 15.1525 79.5525 15.3403C79.185 15.7646 78.9962 16.3152 79.026 16.8762V17.0642H76.5296V16.737C76.5205 16.011 76.7084 15.2962 77.0733 14.6689C77.4357 14.0425 77.9706 13.5339 78.614 13.2038C79.328 12.8419 80.1201 12.6616 80.9202 12.6789C82.3309 12.6789 83.4238 13.0231 84.199 13.7117C84.5852 14.06 84.8897 14.4895 85.0907 14.9695C85.2917 15.4494 85.3844 15.968 85.3619 16.488C85.3808 17.2491 85.1673 17.9978 84.75 18.6342C84.2182 19.3686 83.5835 20.0223 82.8656 20.5754L80.162 22.773H85.4131V24.8582H76.5832V22.961L81.1396 19.169C81.6274 18.7981 82.0628 18.3627 82.4341 17.8749Z" fill="white"/>
<path d="M61.4294 30.9136V32.2931H55.2495V36.156H60.3958V37.538H55.2495V41.6083H61.6537V42.9879H53.7527V30.9136H61.4294Z" fill="white"/>
<path d="M62.8948 37.499H68.6261V38.6711H62.8948V37.499Z" fill="white"/>
<path d="M72.105 31.7072C72.0981 31.9109 72.0213 32.1059 71.8875 32.2595C71.7538 32.413 71.5713 32.5158 71.3708 32.5504C71.1703 32.585 70.9641 32.5493 70.7867 32.4494C70.6094 32.3495 70.4719 32.1914 70.3973 32.0018C70.3227 31.8122 70.3156 31.6027 70.3772 31.4085C70.4388 31.2143 70.5654 31.0473 70.7355 30.9356C70.9057 30.8239 71.1091 30.7743 71.3115 30.7952C71.5138 30.8161 71.7028 30.9062 71.8466 31.0504C71.9325 31.1362 71.9997 31.2388 72.0442 31.3518C72.0886 31.4649 72.1093 31.5858 72.105 31.7072ZM71.8978 34.188V42.9782H70.4863V34.188H71.8978Z" fill="white"/>
<path d="M81.6782 38.085V42.9831H80.2667V38.1729C80.2667 37.2646 80.0627 36.5719 79.6548 36.095C79.2477 35.6066 78.6577 35.3796 77.8898 35.3796C77.5201 35.3611 77.1513 35.4293 76.8127 35.579C76.4741 35.7287 76.1751 35.9555 75.9395 36.2415C75.4682 36.8161 75.2326 37.5975 75.2326 38.5856V42.9807H73.8259V34.1904H75.0448L75.2326 35.382C75.8973 34.5193 76.8618 34.0879 78.1263 34.0879C79.194 34.0879 80.0513 34.4135 80.6982 35.0646C81.345 35.7157 81.6717 36.7225 81.6782 38.085Z" fill="white"/>
<path d="M83.865 34.188L86.5149 41.3789L89.1502 34.188H90.63L87.3413 42.9782H85.6348L82.3486 34.188H83.865Z" fill="white"/>
<path d="M91.5783 40.9319C91.2159 40.2034 91.0273 39.4005 91.0273 38.5866C91.0273 37.7727 91.2159 36.9699 91.5783 36.2413C91.932 35.5773 92.4662 35.027 93.119 34.6542C93.8153 34.2808 94.5928 34.0854 95.3826 34.0854C96.1723 34.0854 96.9499 34.2808 97.6461 34.6542C98.2994 35.0264 98.8337 35.5768 99.1868 36.2413C99.5492 36.9699 99.7378 37.7727 99.7378 38.5866C99.7378 39.4005 99.5492 40.2034 99.1868 40.9319C98.8337 41.5958 98.2993 42.1454 97.6461 42.5166C96.9499 42.89 96.1723 43.0853 95.3826 43.0853C94.5928 43.0853 93.8153 42.89 93.119 42.5166C92.4664 42.1447 91.9322 41.5952 91.5783 40.9319ZM97.9313 40.258C98.1691 39.7326 98.2922 39.1623 98.2922 38.5854C98.2922 38.0085 98.1691 37.4382 97.9313 36.9128C97.7068 36.4381 97.3515 36.0374 96.9074 35.7579C96.445 35.4876 95.9192 35.3451 95.3838 35.3451C94.8484 35.3451 94.3226 35.4876 93.8601 35.7579C93.4149 36.036 93.0593 36.4371 92.8362 36.9128C92.5969 37.4378 92.473 38.0082 92.473 38.5854C92.473 39.1626 92.5969 39.733 92.8362 40.258C93.0586 40.7342 93.4143 41.1354 93.8601 41.4129C94.322 41.6847 94.8481 41.828 95.3838 41.828C95.9195 41.828 96.4455 41.6847 96.9074 41.4129C97.3521 41.134 97.7074 40.7332 97.9313 40.258Z" fill="white"/>
<path d="M102.975 31.7072C102.968 31.9109 102.891 32.1059 102.758 32.2595C102.624 32.413 102.441 32.5158 102.241 32.5504C102.04 32.585 101.834 32.5493 101.657 32.4494C101.48 32.3495 101.342 32.1914 101.267 32.0018C101.193 31.8122 101.186 31.6027 101.247 31.4085C101.309 31.2143 101.435 31.0473 101.606 30.9356C101.776 30.8239 101.979 30.7743 102.182 30.7952C102.384 30.8161 102.573 30.9062 102.717 31.0504C102.803 31.1362 102.87 31.2388 102.914 31.3518C102.959 31.4649 102.979 31.5858 102.975 31.7072ZM102.77 34.188V42.9782H101.356V34.188H102.77Z" fill="white"/>
<path d="M108.658 43.0856C107.874 43.1037 107.1 42.907 106.42 42.5167C105.779 42.1393 105.258 41.586 104.921 40.9223C104.554 40.1929 104.371 39.3849 104.387 38.5684C104.371 37.754 104.558 36.9484 104.93 36.2244C105.275 35.562 105.804 35.0141 106.454 34.647C107.143 34.2638 107.921 34.0701 108.709 34.0854C109.632 34.0498 110.537 34.3431 111.264 34.9132C111.951 35.4899 112.401 36.3002 112.529 37.1889H111.101C110.98 36.653 110.676 36.1767 110.24 35.8435C109.782 35.5081 109.225 35.3362 108.658 35.3551C108.272 35.3422 107.889 35.416 107.536 35.5711C107.183 35.7262 106.869 35.9586 106.617 36.2512C106.078 36.9031 105.799 37.7322 105.835 38.5782C105.797 39.4327 106.075 40.2711 106.617 40.932C107.075 41.4307 107.698 41.7466 108.37 41.8211C109.042 41.8956 109.719 41.7238 110.274 41.3373C110.715 40.9971 111.015 40.5059 111.118 39.9578H112.529C112.391 40.856 111.933 41.6739 111.239 42.2603C110.504 42.8327 109.589 43.1252 108.658 43.0856Z" fill="white"/>
<path d="M115.664 34.6469C116.323 34.2658 117.073 34.0717 117.834 34.0853C118.576 34.0708 119.31 34.2429 119.969 34.5859C120.587 34.9164 121.095 35.4194 121.432 36.0338C121.8 36.7175 121.995 37.4814 122 38.2582C122 38.3852 121.988 38.5854 121.966 38.8613H115.14V38.9834C115.126 39.7496 115.411 40.4911 115.932 41.0516C116.191 41.3111 116.5 41.5141 116.841 41.6478C117.181 41.7814 117.546 41.8428 117.912 41.828C118.485 41.8448 119.05 41.679 119.523 41.3543C119.967 41.0344 120.281 40.5656 120.408 40.0334H121.851C121.698 40.8969 121.24 41.6767 120.562 42.2309C119.847 42.8082 118.949 43.1105 118.031 43.0831C117.232 43.1015 116.441 42.9087 115.74 42.5239C115.09 42.153 114.56 41.6019 114.216 40.9368C113.845 40.2089 113.659 39.4003 113.675 38.583C113.657 37.7652 113.837 36.9552 114.199 36.2218C114.527 35.5676 115.036 35.0211 115.664 34.6469ZM119.701 35.9484C119.181 35.5225 118.522 35.3019 117.851 35.3282C117.205 35.3204 116.579 35.5537 116.096 35.9826C115.847 36.1964 115.642 36.4576 115.495 36.7509C115.347 37.0443 115.259 37.3641 115.235 37.6918H120.537C120.522 37.3599 120.439 37.0346 120.296 36.7351C120.152 36.4356 119.95 36.1681 119.701 35.9484Z" fill="white"/>
<path d="M145 23.0166H155V26.0166L159 22.0166L155 18.0166V21.0166H143V27.0166H145V23.0166ZM155 33.0166H145V30.0166L141 34.0166L145 38.0166V35.0166H157V29.0166H155V33.0166Z" fill="#F6F7F9"/>
</svg>
